<mxfile host="app.diagrams.net" modified="2023-05-22T20:30:02.905Z" agent="Mozilla/5.0 (Windows NT 10.0; Win64; x64) AppleWebKit/537.36 (KHTML, like Gecko) Chrome/113.0.0.0 Safari/537.36" etag="aNS7g4mTaBprONLXbJ_8" version="21.3.2" type="github">
  <diagram name="Page-1" id="6uWYpUeEbUgfZEgCMdZA">
    <mxGraphModel dx="1434" dy="764" grid="0" gridSize="10" guides="1" tooltips="1" connect="1" arrows="1" fold="1" page="1" pageScale="1" pageWidth="850" pageHeight="1100" math="0" shadow="0">
      <root>
        <mxCell id="0" />
        <mxCell id="1" parent="0" />
        <mxCell id="ZSrJLsLNsF3YaiPQ5Vyp-1" value="КЛИЕНТ" style="rounded=1;whiteSpace=wrap;html=1;fontFamily=Gost type A regular;fontStyle=2;fontSource=https%3A%2F%2Fwebfonts.pro%2Flight-fonts%2F123-gost_type_a.html;fontSize=20;" parent="1" vertex="1">
          <mxGeometry x="152" y="147" width="149" height="280" as="geometry" />
        </mxCell>
        <mxCell id="ZSrJLsLNsF3YaiPQ5Vyp-2" value="СЕРВЕР" style="rounded=1;whiteSpace=wrap;html=1;fontFamily=Gost type A regular;fontStyle=2;fontSource=https%3A%2F%2Fwebfonts.pro%2Flight-fonts%2F123-gost_type_a.html;fontSize=20;" parent="1" vertex="1">
          <mxGeometry x="565" y="147" width="149" height="280" as="geometry" />
        </mxCell>
        <mxCell id="ZSrJLsLNsF3YaiPQ5Vyp-6" value="" style="endArrow=open;html=1;rounded=0;edgeStyle=orthogonalEdgeStyle;endFill=0;fontFamily=Gost type A regular;fontStyle=2;fontSource=https%3A%2F%2Fwebfonts.pro%2Flight-fonts%2F123-gost_type_a.html;fontSize=20;" parent="1" source="ZSrJLsLNsF3YaiPQ5Vyp-1" target="ZSrJLsLNsF3YaiPQ5Vyp-2" edge="1">
          <mxGeometry width="50" height="50" relative="1" as="geometry">
            <mxPoint x="415" y="282" as="sourcePoint" />
            <mxPoint x="465" y="232" as="targetPoint" />
            <Array as="points">
              <mxPoint x="402" y="186" />
              <mxPoint x="402" y="186" />
            </Array>
          </mxGeometry>
        </mxCell>
        <mxCell id="ZSrJLsLNsF3YaiPQ5Vyp-7" value="Первоначальный GET-запрос" style="text;html=1;align=center;verticalAlign=middle;resizable=0;points=[];autosize=1;strokeColor=none;fillColor=none;fontFamily=Gost type A regular;fontStyle=2;fontSource=https%3A%2F%2Fwebfonts.pro%2Flight-fonts%2F123-gost_type_a.html;fontSize=20;" parent="1" vertex="1">
          <mxGeometry x="301" y="142" width="265" height="36" as="geometry" />
        </mxCell>
        <mxCell id="ZSrJLsLNsF3YaiPQ5Vyp-14" value="" style="endArrow=open;html=1;rounded=0;edgeStyle=orthogonalEdgeStyle;endFill=0;fontFamily=Gost type A regular;fontStyle=2;fontSource=https%3A%2F%2Fwebfonts.pro%2Flight-fonts%2F123-gost_type_a.html;fontSize=20;" parent="1" source="ZSrJLsLNsF3YaiPQ5Vyp-1" target="ZSrJLsLNsF3YaiPQ5Vyp-2" edge="1">
          <mxGeometry width="50" height="50" relative="1" as="geometry">
            <mxPoint x="301" y="309" as="sourcePoint" />
            <mxPoint x="565" y="309" as="targetPoint" />
            <Array as="points">
              <mxPoint x="467" y="323" />
              <mxPoint x="467" y="323" />
            </Array>
          </mxGeometry>
        </mxCell>
        <mxCell id="ZSrJLsLNsF3YaiPQ5Vyp-16" value="AJAX" style="text;html=1;align=center;verticalAlign=middle;resizable=0;points=[];autosize=1;strokeColor=none;fillColor=none;fontFamily=Gost type A regular;fontStyle=2;fontSource=https%3A%2F%2Fwebfonts.pro%2Flight-fonts%2F123-gost_type_a.html;fontSize=20;" parent="1" vertex="1">
          <mxGeometry x="396" y="287" width="64" height="36" as="geometry" />
        </mxCell>
        <mxCell id="ZSrJLsLNsF3YaiPQ5Vyp-24" value="" style="endArrow=open;html=1;rounded=0;edgeStyle=orthogonalEdgeStyle;endFill=0;fontFamily=Gost type A regular;fontStyle=2;fontSource=https%3A%2F%2Fwebfonts.pro%2Flight-fonts%2F123-gost_type_a.html;fontSize=20;" parent="1" edge="1">
          <mxGeometry width="50" height="50" relative="1" as="geometry">
            <mxPoint x="564.5" y="391" as="sourcePoint" />
            <mxPoint x="300.5" y="391" as="targetPoint" />
            <Array as="points">
              <mxPoint x="503.5" y="391" />
              <mxPoint x="503.5" y="391" />
            </Array>
          </mxGeometry>
        </mxCell>
        <mxCell id="ZSrJLsLNsF3YaiPQ5Vyp-25" value="" style="group;fontFamily=Gost type A regular;fontStyle=2;fontSource=https%3A%2F%2Fwebfonts.pro%2Flight-fonts%2F123-gost_type_a.html;fontSize=20;" parent="1" vertex="1" connectable="0">
          <mxGeometry x="396" y="350" width="75" height="74" as="geometry" />
        </mxCell>
        <mxCell id="ZSrJLsLNsF3YaiPQ5Vyp-26" value="" style="shape=note;whiteSpace=wrap;html=1;backgroundOutline=1;darkOpacity=0.05;size=9;fontFamily=Gost type A regular;fontStyle=2;fontSource=https%3A%2F%2Fwebfonts.pro%2Flight-fonts%2F123-gost_type_a.html;fontSize=20;" parent="ZSrJLsLNsF3YaiPQ5Vyp-25" vertex="1">
          <mxGeometry width="65" height="74" as="geometry" />
        </mxCell>
        <mxCell id="ZSrJLsLNsF3YaiPQ5Vyp-27" value="{...}&lt;br style=&quot;font-size: 20px;&quot;&gt;JSON" style="text;html=1;align=center;verticalAlign=middle;resizable=0;points=[];autosize=1;strokeColor=none;fillColor=none;fontFamily=Gost type A regular;fontStyle=2;fontSource=https%3A%2F%2Fwebfonts.pro%2Flight-fonts%2F123-gost_type_a.html;fontSize=20;" parent="ZSrJLsLNsF3YaiPQ5Vyp-25" vertex="1">
          <mxGeometry x="-0.004189615678795278" y="6.9956891495601194" width="65" height="60" as="geometry" />
        </mxCell>
        <mxCell id="ZSrJLsLNsF3YaiPQ5Vyp-8" value="" style="endArrow=open;html=1;rounded=0;edgeStyle=orthogonalEdgeStyle;endFill=0;fontFamily=Gost type A regular;fontStyle=2;fontSource=https%3A%2F%2Fwebfonts.pro%2Flight-fonts%2F123-gost_type_a.html;fontSize=20;" parent="1" source="ZSrJLsLNsF3YaiPQ5Vyp-2" target="ZSrJLsLNsF3YaiPQ5Vyp-1" edge="1">
          <mxGeometry width="50" height="50" relative="1" as="geometry">
            <mxPoint x="722" y="275" as="sourcePoint" />
            <mxPoint x="572" y="206" as="targetPoint" />
            <Array as="points">
              <mxPoint x="504" y="251" />
              <mxPoint x="504" y="251" />
            </Array>
          </mxGeometry>
        </mxCell>
        <mxCell id="ZSrJLsLNsF3YaiPQ5Vyp-13" value="" style="group;fontFamily=Gost type A regular;fontStyle=2;fontSource=https%3A%2F%2Fwebfonts.pro%2Flight-fonts%2F123-gost_type_a.html;fontSize=20;" parent="1" vertex="1" connectable="0">
          <mxGeometry x="395" y="207" width="75" height="73" as="geometry" />
        </mxCell>
        <mxCell id="ZSrJLsLNsF3YaiPQ5Vyp-9" value="" style="shape=note;whiteSpace=wrap;html=1;backgroundOutline=1;darkOpacity=0.05;size=9;fontFamily=Gost type A regular;fontStyle=2;fontSource=https%3A%2F%2Fwebfonts.pro%2Flight-fonts%2F123-gost_type_a.html;fontSize=20;" parent="ZSrJLsLNsF3YaiPQ5Vyp-13" vertex="1">
          <mxGeometry width="65" height="73" as="geometry" />
        </mxCell>
        <mxCell id="ZSrJLsLNsF3YaiPQ5Vyp-11" value="HTML" style="text;html=1;align=center;verticalAlign=middle;resizable=0;points=[];autosize=1;strokeColor=none;fillColor=none;fontFamily=Gost type A regular;fontStyle=2;fontSource=https%3A%2F%2Fwebfonts.pro%2Flight-fonts%2F123-gost_type_a.html;fontSize=20;" parent="ZSrJLsLNsF3YaiPQ5Vyp-13" vertex="1">
          <mxGeometry x="-2.9977935981831365" y="16.00233626588465" width="71" height="36" as="geometry" />
        </mxCell>
      </root>
    </mxGraphModel>
  </diagram>
</mxfile>
